<?xml version="1.0" standalone="no"?>
<!DOCTYPE svg PUBLIC "-//W3C//DTD SVG 20010904//EN"
 "http://www.w3.org/TR/2001/REC-SVG-20010904/DTD/svg10.dtd">
<svg version="1.0" xmlns="http://www.w3.org/2000/svg"
 width="225.000000pt" height="225.000000pt" viewBox="0 0 225.000000 225.000000"
 preserveAspectRatio="xMidYMid meet">

<g transform="translate(0.000000,225.000000) scale(0.100000,-0.100000)"
fill="#000000" stroke="none">
<path d="M1265 2150 c-28 -4 -65 -15 -83 -24 -58 -30 -82 -117 -42 -154 l20
-19 -20 -23 c-13 -15 -20 -37 -20 -67 0 -23 -4 -43 -10 -43 -5 0 -10 -17 -10
-38 0 -21 -8 -49 -17 -62 -16 -22 -19 -64 -24 -375 -3 -192 -10 -365 -14 -383
-5 -21 -3 -37 5 -47 21 -26 5 -28 -67 -10 -83 21 -173 16 -255 -15 -62 -23
-85 -46 -117 -116 -12 -24 -30 -63 -41 -87 -13 -29 -20 -64 -20 -108 0 -80 12
-122 51 -184 32 -51 59 -150 59 -222 0 -56 8 -73 34 -73 28 1 95 31 152 70
l45 32 59 -36 c33 -21 85 -46 115 -56 l56 -19 9 25 c6 14 10 44 11 67 1 53 9
77 35 110 l21 26 44 -22 c38 -19 61 -22 164 -21 135 0 207 20 265 74 l30 28 0
675 0 676 -25 19 c-16 13 -25 30 -25 49 0 16 -9 36 -20 46 -12 10 -20 29 -20
46 0 16 -7 36 -15 45 -21 20 -19 39 5 54 17 10 20 19 14 50 -6 40 -39 75 -89
97 -38 16 -194 25 -260 15z m280 -226 c-68 -50 -355 -38 -373 15 -4 11 1 12
19 6 46 -14 261 -17 314 -3 52 14 72 5 40 -18z m-374 -94 c9 0 13 22 10 48 -2
9 4 12 16 8 79 -23 124 -28 209 -23 76 5 92 4 88 -7 -3 -8 -1 -17 5 -21 7 -4
11 4 11 19 0 14 5 26 10 26 6 0 10 -7 10 -15 0 -8 5 -15 10 -15 6 0 10 8 10
19 0 10 6 24 14 30 11 9 15 7 20 -11 11 -41 6 -49 -40 -68 -57 -25 -64 -25
-64 0 0 30 -18 24 -22 -7 -3 -25 -8 -29 -48 -35 -25 -3 -62 -4 -82 -1 -34 5
-38 9 -38 34 0 16 -4 29 -10 29 -5 0 -10 -11 -10 -25 0 -18 -5 -25 -20 -25
-15 0 -20 7 -20 25 0 14 -4 25 -10 25 -5 0 -10 -9 -10 -20 0 -22 -12 -25 -41
-10 -15 9 -19 20 -17 58 l1 47 4 -42 c2 -24 8 -43 14 -43z m459 -25 c0 -33
-92 -70 -211 -85 -142 -17 -290 17 -297 68 -3 22 -3 23 20 8 95 -62 323 -58
438 9 32 19 50 19 50 0z m-10 -66 c0 -32 -173 -70 -318 -68 -93 1 -149 16
-169 46 l-15 23 48 -22 c43 -20 66 -23 174 -22 109 0 134 3 195 26 85 31 85
31 85 17z m48 -36 c-6 -58 -162 -113 -317 -113 -140 0 -261 47 -261 102 0 24
8 23 31 -6 30 -38 82 -50 209 -50 143 0 216 16 277 59 60 41 65 42 61 8z
m-409 -513 c-25 -27 -63 -81 -83 -119 -26 -50 -41 -68 -51 -64 -20 7 -20 6 17
77 37 69 118 156 146 156 14 0 7 -11 -29 -50z m-121 -210 c23 0 32 -4 29 -12
-2 -8 -18 -12 -37 -10 -28 2 -31 0 -20 -13 7 -8 19 -15 26 -15 8 0 14 -5 14
-11 0 -17 -72 -6 -83 13 -15 23 8 77 25 60 7 -7 27 -12 46 -12z m-125 -101
c50 -13 52 -45 2 -51 -19 -2 -42 0 -51 5 -10 6 -25 5 -40 -2 -15 -6 -25 -7
-29 -1 -8 13 -52 13 -60 0 -3 -5 -16 -10 -27 -10 -12 0 -29 -6 -37 -14 -9 -7
-28 -16 -43 -20 -24 -5 -28 -3 -28 15 0 30 54 76 103 88 46 11 150 6 210 -10z
m91 2 c10 -15 -26 -140 -42 -146 -20 -8 -25 0 -14 22 5 10 15 44 22 76 11 53
22 69 34 48z m-432 -76 c-5 -44 15 -70 78 -98 36 -16 68 -20 160 -21 107 -1
119 1 172 27 33 16 65 40 76 59 l20 31 12 -23 c10 -19 9 -27 -7 -49 -17 -22
-73 -61 -108 -74 -5 -3 -7 -8 -3 -12 12 -13 71 14 105 47 35 34 42 25 18 -22
-60 -117 -447 -122 -552 -8 -21 22 -27 42 -24 83 1 17 4 15 20 -11 25 -40 59
-64 91 -64 23 1 22 2 -12 20 -61 33 -83 83 -58 131 15 27 17 24 12 -16z m468
7 c0 -10 -7 -27 -16 -38 -15 -18 -15 -18 -10 6 3 14 6 31 6 38 0 6 5 12 10 12
6 0 10 -8 10 -18z"/>
<path d="M815 873 c-37 -8 -75 -25 -75 -34 0 -12 13 -11 42 0 13 6 41 13 63
17 33 5 37 8 20 14 -22 9 -22 9 -50 3z"/>
<path d="M780 628 c0 -14 25 -20 66 -16 l39 3 -52 11 c-29 6 -53 7 -53 2z"/>
</g>
</svg>
