<?xml version="1.0" standalone="no"?>
<!DOCTYPE svg PUBLIC "-//W3C//DTD SVG 20010904//EN"
 "http://www.w3.org/TR/2001/REC-SVG-20010904/DTD/svg10.dtd">
<svg version="1.0" xmlns="http://www.w3.org/2000/svg"
 width="723.000000pt" height="588.000000pt" viewBox="0 0 723.000000 588.000000"
 preserveAspectRatio="xMidYMid meet">

<g transform="translate(0.000000,588.000000) scale(0.100000,-0.100000)"
fill="#000000" stroke="none">
<path d="M213 5870 c-77 -18 -145 -76 -189 -160 -23 -46 -24 -160 0 -213 27
-62 91 -124 152 -147 51 -19 77 -20 417 -20 l362 0 29 -77 c49 -132 83 -221
162 -428 42 -110 80 -211 84 -225 5 -14 32 -86 60 -160 29 -74 71 -187 95
-250 23 -63 102 -272 175 -465 134 -356 193 -510 260 -690 21 -55 77 -203 125
-330 360 -951 445 -1179 445 -1191 0 -6 -26 -27 -57 -47 -77 -47 -200 -176
-251 -262 -93 -157 -132 -360 -101 -531 63 -358 329 -615 688 -665 253 -36
542 87 705 300 67 86 121 203 146 314 19 82 22 116 17 210 -3 62 -12 136 -20
165 l-14 52 799 0 c757 0 798 -1 790 -17 -17 -31 -32 -147 -32 -237 0 -402
294 -736 695 -788 297 -38 610 122 770 396 71 121 112 314 100 464 -26 306
-247 589 -536 686 -41 14 -112 30 -159 35 -56 7 -573 11 -1536 11 -1373 0
-1452 1 -1459 18 -15 39 -135 354 -135 355 0 1 784 2 1743 2 l1742 0 49 24
c54 27 108 76 130 119 7 15 35 97 61 182 26 85 71 232 100 325 29 94 73 238
98 320 26 83 84 274 131 425 47 151 119 388 161 525 42 138 99 322 127 410 98
313 99 323 72 414 -18 61 -77 131 -139 164 l-40 22 -2671 3 -2671 2 -73 193
c-40 105 -91 239 -112 297 -135 357 -128 342 -184 397 -85 84 -81 83 -618 82
-254 -1 -475 -4 -493 -9z m3181 -1597 c4 -49 9 -119 11 -158 11 -155 35 -463
41 -518 l6 -57 -622 2 -622 3 -23 60 c-13 33 -79 209 -148 390 -69 182 -128
338 -132 348 -7 16 32 17 738 17 l744 0 7 -87z m1533 0 c-9 -106 -57 -715 -57
-725 0 -5 -256 -8 -570 -8 l-569 0 -5 33 c-3 17 -13 124 -21 237 -30 398 -35
455 -41 503 l-6 47 639 0 638 0 -8 -87z m1654 60 c-23 -77 -138 -453 -172
-558 -21 -66 -45 -146 -54 -177 l-16 -58 -595 0 c-468 0 -594 3 -594 13 0 20
29 406 45 602 8 99 15 186 15 193 0 9 145 12 689 12 l690 0 -8 -27z m-3102
-1223 c7 -80 18 -226 26 -325 8 -99 17 -198 20 -221 l4 -40 -469 0 -469 1 -15
45 c-8 25 -56 153 -107 285 -50 132 -101 269 -114 305 -13 36 -26 72 -29 80
-6 14 58 15 567 15 l574 0 12 -145z m1371 132 c0 -10 -4 -65 -10 -123 -5 -57
-16 -194 -25 -304 -14 -184 -23 -286 -24 -292 -1 -2 -223 -3 -495 -3 l-493 0
-7 103 c-4 56 -9 116 -11 132 -2 17 -7 75 -10 130 -3 55 -10 143 -15 195 -5
52 -10 114 -10 138 l0 42 550 0 c526 0 550 -1 550 -18z m1396 1 c-2 -10 -53
-177 -112 -370 l-108 -353 -478 0 c-321 0 -478 3 -478 10 0 16 29 418 35 475
2 28 7 96 11 153 l7 102 564 0 c533 0 564 -1 559 -17z m-3382 -2224 c94 -48
131 -109 131 -219 0 -83 -15 -122 -68 -178 -33 -34 -119 -72 -166 -72 -102 0
-204 73 -236 170 -68 206 148 398 339 299z m3085 1 c87 -44 135 -123 135 -220
0 -230 -277 -335 -426 -160 -84 97 -78 240 13 332 77 77 185 96 278 48z"/>
</g>
</svg>
